<mxfile host="app.diagrams.net" agent="Mozilla/5.0 (Windows NT 10.0; Win64; x64) AppleWebKit/537.36 (KHTML, like Gecko) Chrome/139.0.0.0 Safari/537.36" version="28.0.7">
  <diagram name="Page-1" id="sHEW1Yff6BEwazCneaDm">
    <mxGraphModel dx="2032" dy="790" grid="1" gridSize="5" guides="1" tooltips="1" connect="1" arrows="1" fold="1" page="1" pageScale="1" pageWidth="2560" pageHeight="2560" math="0" shadow="0">
      <root>
        <mxCell id="0" />
        <mxCell id="1" parent="0" />
        <mxCell id="nDDD4RxxRrW6POsalyc5-201" value="" style="rounded=0;whiteSpace=wrap;html=1;fillColor=default;movable=0;resizable=0;rotatable=0;deletable=0;editable=0;locked=1;connectable=0;" parent="1" vertex="1">
          <mxGeometry x="120" y="3390" width="280" height="340" as="geometry" />
        </mxCell>
        <mxCell id="nDDD4RxxRrW6POsalyc5-195" value="" style="rounded=1;whiteSpace=wrap;html=1;arcSize=4;fillColor=#FFF7E6;movable=1;resizable=1;rotatable=1;deletable=1;editable=1;locked=0;connectable=1;shadow=1;" parent="1" vertex="1">
          <mxGeometry x="500" y="2860" width="920" height="1700" as="geometry" />
        </mxCell>
        <mxCell id="nDDD4RxxRrW6POsalyc5-83" value="" style="rounded=0;whiteSpace=wrap;html=1;fillColor=#B3B3B3;" parent="1" vertex="1">
          <mxGeometry x="915" y="1635" width="20" height="20" as="geometry" />
        </mxCell>
        <mxCell id="nDDD4RxxRrW6POsalyc5-84" value="" style="rounded=0;whiteSpace=wrap;html=1;fillColor=#B3B3B3;" parent="1" vertex="1">
          <mxGeometry x="935" y="1635" width="20" height="20" as="geometry" />
        </mxCell>
        <mxCell id="nDDD4RxxRrW6POsalyc5-85" value="" style="rounded=0;whiteSpace=wrap;html=1;fillColor=#B3B3B3;" parent="1" vertex="1">
          <mxGeometry x="955" y="1635" width="20" height="20" as="geometry" />
        </mxCell>
        <mxCell id="nDDD4RxxRrW6POsalyc5-86" value="" style="rounded=0;whiteSpace=wrap;html=1;fillColor=#B3B3B3;" parent="1" vertex="1">
          <mxGeometry x="975" y="1635" width="20" height="20" as="geometry" />
        </mxCell>
        <mxCell id="nDDD4RxxRrW6POsalyc5-43" value="" style="rounded=0;whiteSpace=wrap;html=1;fillColor=none;movable=1;resizable=1;rotatable=1;deletable=1;editable=1;locked=0;connectable=1;" parent="1" vertex="1">
          <mxGeometry x="460" y="1200" width="500" height="140" as="geometry" />
        </mxCell>
        <mxCell id="nDDD4RxxRrW6POsalyc5-1" value="Gateway" style="rounded=1;whiteSpace=wrap;html=1;fontSize=26;fillColor=#FFCCFF;glass=0;shadow=1;arcSize=12;" parent="1" vertex="1">
          <mxGeometry x="480" y="800" width="480" height="320" as="geometry" />
        </mxCell>
        <mxCell id="nDDD4RxxRrW6POsalyc5-3" value="" style="endArrow=block;startArrow=block;html=1;rounded=1;startFill=1;endFill=1;strokeColor=#CC6600;curved=0;startSize=7;endSize=7;" parent="1" edge="1">
          <mxGeometry width="50" height="50" relative="1" as="geometry">
            <mxPoint x="1000" y="930" as="sourcePoint" />
            <mxPoint x="1160" y="900" as="targetPoint" />
            <Array as="points">
              <mxPoint x="1065" y="930" />
              <mxPoint x="1100" y="900" />
            </Array>
          </mxGeometry>
        </mxCell>
        <mxCell id="nDDD4RxxRrW6POsalyc5-4" value="" style="endArrow=block;startArrow=block;html=1;rounded=1;startFill=1;endFill=1;strokeColor=#4D4D4D;curved=0;startSize=7;endSize=7;" parent="1" edge="1">
          <mxGeometry width="50" height="50" relative="1" as="geometry">
            <mxPoint x="1000" y="990" as="sourcePoint" />
            <mxPoint x="1160" y="1020" as="targetPoint" />
            <Array as="points">
              <mxPoint x="1060" y="990" />
              <mxPoint x="1100" y="1020" />
            </Array>
          </mxGeometry>
        </mxCell>
        <mxCell id="nDDD4RxxRrW6POsalyc5-15" value="Device" style="rounded=1;whiteSpace=wrap;html=1;fontStyle=1;fillColor=#E3F6E2;glass=0;shadow=1;" parent="1" vertex="1">
          <mxGeometry x="1199.71" y="880" width="120" height="40" as="geometry" />
        </mxCell>
        <mxCell id="nDDD4RxxRrW6POsalyc5-16" value="Device" style="rounded=1;whiteSpace=wrap;html=1;fontStyle=1;fillColor=#E3F6E2;glass=0;shadow=1;" parent="1" vertex="1">
          <mxGeometry x="1439.71" y="880" width="120" height="40" as="geometry" />
        </mxCell>
        <mxCell id="nDDD4RxxRrW6POsalyc5-17" value="Device" style="rounded=1;whiteSpace=wrap;html=1;fontStyle=1;fillColor=#E3F6E2;glass=0;shadow=1;" parent="1" vertex="1">
          <mxGeometry x="1679.71" y="880" width="120" height="40" as="geometry" />
        </mxCell>
        <mxCell id="nDDD4RxxRrW6POsalyc5-19" value="" style="endArrow=block;startArrow=block;html=1;rounded=0;startFill=1;endFill=1;strokeColor=#4D4D4D;" parent="1" edge="1">
          <mxGeometry width="50" height="50" relative="1" as="geometry">
            <mxPoint x="1339.71" y="899.66" as="sourcePoint" />
            <mxPoint x="1419.71" y="900" as="targetPoint" />
          </mxGeometry>
        </mxCell>
        <mxCell id="nDDD4RxxRrW6POsalyc5-20" value="" style="endArrow=block;startArrow=block;html=1;rounded=0;startFill=1;endFill=1;strokeColor=#4D4D4D;" parent="1" edge="1">
          <mxGeometry width="50" height="50" relative="1" as="geometry">
            <mxPoint x="1579.71" y="900" as="sourcePoint" />
            <mxPoint x="1659.71" y="900.34" as="targetPoint" />
          </mxGeometry>
        </mxCell>
        <mxCell id="nDDD4RxxRrW6POsalyc5-22" value="" style="endArrow=none;dashed=1;html=1;dashPattern=1 3;strokeWidth=2;rounded=0;strokeColor=#4D4D4D;" parent="1" edge="1">
          <mxGeometry width="50" height="50" relative="1" as="geometry">
            <mxPoint x="1819.71" y="899.63" as="sourcePoint" />
            <mxPoint x="1859.71" y="899.63" as="targetPoint" />
          </mxGeometry>
        </mxCell>
        <mxCell id="nDDD4RxxRrW6POsalyc5-23" value="Device" style="rounded=1;whiteSpace=wrap;html=1;fontStyle=1;fillColor=#E3F6E2;glass=0;shadow=1;" parent="1" vertex="1">
          <mxGeometry x="1199.71" y="1000" width="120" height="40" as="geometry" />
        </mxCell>
        <mxCell id="nDDD4RxxRrW6POsalyc5-24" value="Device" style="rounded=1;whiteSpace=wrap;html=1;fontStyle=1;fillColor=#E3F6E2;glass=0;shadow=1;" parent="1" vertex="1">
          <mxGeometry x="1439.71" y="1000" width="120" height="40" as="geometry" />
        </mxCell>
        <mxCell id="nDDD4RxxRrW6POsalyc5-25" value="Device" style="rounded=1;whiteSpace=wrap;html=1;fontStyle=1;fillColor=#E3F6E2;glass=0;shadow=1;" parent="1" vertex="1">
          <mxGeometry x="1679.71" y="1000" width="120" height="40" as="geometry" />
        </mxCell>
        <mxCell id="nDDD4RxxRrW6POsalyc5-27" value="" style="endArrow=block;startArrow=block;html=1;rounded=0;startFill=1;endFill=1;strokeColor=#4D4D4D;" parent="1" edge="1">
          <mxGeometry width="50" height="50" relative="1" as="geometry">
            <mxPoint x="1339.71" y="1019.66" as="sourcePoint" />
            <mxPoint x="1419.71" y="1020" as="targetPoint" />
          </mxGeometry>
        </mxCell>
        <mxCell id="nDDD4RxxRrW6POsalyc5-28" value="" style="endArrow=block;startArrow=block;html=1;rounded=0;startFill=1;endFill=1;strokeColor=#4D4D4D;" parent="1" edge="1">
          <mxGeometry width="50" height="50" relative="1" as="geometry">
            <mxPoint x="1579.71" y="1020" as="sourcePoint" />
            <mxPoint x="1659.71" y="1020.34" as="targetPoint" />
          </mxGeometry>
        </mxCell>
        <mxCell id="nDDD4RxxRrW6POsalyc5-30" value="" style="endArrow=none;dashed=1;html=1;dashPattern=1 3;strokeWidth=2;rounded=0;strokeColor=#4D4D4D;" parent="1" edge="1">
          <mxGeometry width="50" height="50" relative="1" as="geometry">
            <mxPoint x="1819.71" y="1019.63" as="sourcePoint" />
            <mxPoint x="1859.71" y="1019.63" as="targetPoint" />
          </mxGeometry>
        </mxCell>
        <mxCell id="nDDD4RxxRrW6POsalyc5-39" value="" style="endArrow=block;startArrow=block;html=1;rounded=1;startFill=1;endFill=1;strokeColor=#4D4D4D;curved=0;" parent="1" edge="1">
          <mxGeometry width="50" height="50" relative="1" as="geometry">
            <mxPoint x="500" y="1240" as="sourcePoint" />
            <mxPoint x="580" y="1240" as="targetPoint" />
            <Array as="points" />
          </mxGeometry>
        </mxCell>
        <mxCell id="nDDD4RxxRrW6POsalyc5-40" value="" style="endArrow=block;startArrow=block;html=1;rounded=1;startFill=1;endFill=1;strokeColor=#CC6600;curved=0;" parent="1" edge="1">
          <mxGeometry width="50" height="50" relative="1" as="geometry">
            <mxPoint x="500" y="1300" as="sourcePoint" />
            <mxPoint x="580" y="1300" as="targetPoint" />
            <Array as="points" />
          </mxGeometry>
        </mxCell>
        <mxCell id="nDDD4RxxRrW6POsalyc5-41" value="Can use up to 10W over both bus, can work with PoE" style="text;html=1;align=left;verticalAlign=middle;whiteSpace=wrap;rounded=0;" parent="1" vertex="1">
          <mxGeometry x="600" y="1230" width="360" height="20" as="geometry" />
        </mxCell>
        <mxCell id="nDDD4RxxRrW6POsalyc5-42" value="Can use up to 60W over both bus, only works with USB-PD" style="text;html=1;align=left;verticalAlign=middle;whiteSpace=wrap;rounded=0;" parent="1" vertex="1">
          <mxGeometry x="600" y="1290" width="340" height="20" as="geometry" />
        </mxCell>
        <mxCell id="nDDD4RxxRrW6POsalyc5-45" value="" style="shape=flexArrow;endArrow=classic;html=1;rounded=0;strokeColor=#4D4D4D;fillColor=default;" parent="1" edge="1">
          <mxGeometry width="50" height="50" relative="1" as="geometry">
            <mxPoint x="390" y="1040" as="sourcePoint" />
            <mxPoint x="440" y="1040" as="targetPoint" />
          </mxGeometry>
        </mxCell>
        <mxCell id="nDDD4RxxRrW6POsalyc5-46" value="" style="shape=link;endArrow=none;html=1;rounded=0;endFill=0;fillColor=default;dashed=1;width=9.907407407407405;strokeColor=#4D4D4D;dashPattern=8 8;" parent="1" edge="1">
          <mxGeometry width="50" height="50" relative="1" as="geometry">
            <mxPoint x="340" y="1039.89" as="sourcePoint" />
            <mxPoint x="380" y="1039.89" as="targetPoint" />
          </mxGeometry>
        </mxCell>
        <mxCell id="nDDD4RxxRrW6POsalyc5-47" value="" style="shape=pipe;endArrow=none;html=1;rounded=0;endFill=0;fillColor=default;strokeColor=#4D4D4D;width=9.11111111111111;" parent="1" edge="1">
          <mxGeometry width="50" height="50" relative="1" as="geometry">
            <mxPoint x="380" y="1040" as="sourcePoint" />
            <mxPoint x="420" y="1040" as="targetPoint" />
          </mxGeometry>
        </mxCell>
        <mxCell id="nDDD4RxxRrW6POsalyc5-48" value="" style="shape=flexArrow;endArrow=classic;html=1;rounded=0;strokeColor=#4D4D4D;fillColor=default;" parent="1" edge="1">
          <mxGeometry width="50" height="50" relative="1" as="geometry">
            <mxPoint x="390" y="880.1099999999999" as="sourcePoint" />
            <mxPoint x="440" y="880.1099999999999" as="targetPoint" />
          </mxGeometry>
        </mxCell>
        <mxCell id="nDDD4RxxRrW6POsalyc5-49" value="" style="shape=link;endArrow=none;html=1;rounded=0;endFill=0;fillColor=default;dashed=1;width=9.907407407407405;strokeColor=#4D4D4D;dashPattern=8 8;" parent="1" edge="1">
          <mxGeometry width="50" height="50" relative="1" as="geometry">
            <mxPoint x="340" y="880" as="sourcePoint" />
            <mxPoint x="380" y="880" as="targetPoint" />
          </mxGeometry>
        </mxCell>
        <mxCell id="nDDD4RxxRrW6POsalyc5-50" value="" style="shape=pipe;endArrow=none;html=1;rounded=0;endFill=0;fillColor=default;strokeColor=#4D4D4D;width=9.11111111111111;" parent="1" edge="1">
          <mxGeometry width="50" height="50" relative="1" as="geometry">
            <mxPoint x="380" y="880.1099999999999" as="sourcePoint" />
            <mxPoint x="420" y="880.1099999999999" as="targetPoint" />
          </mxGeometry>
        </mxCell>
        <mxCell id="nDDD4RxxRrW6POsalyc5-51" value="USB&amp;nbsp; &amp;nbsp;&lt;font style=&quot;color: rgb(77, 77, 77);&quot;&gt;+&lt;/font&gt;&amp;nbsp; PD" style="text;html=1;align=right;verticalAlign=middle;whiteSpace=wrap;rounded=0;fontStyle=1" parent="1" vertex="1">
          <mxGeometry x="240" y="865" width="80" height="20" as="geometry" />
        </mxCell>
        <mxCell id="nDDD4RxxRrW6POsalyc5-52" value="Ethernet&amp;nbsp; &lt;font style=&quot;color: rgb(102, 102, 102);&quot;&gt;+&lt;/font&gt;&amp;nbsp; PoE" style="text;html=1;align=right;verticalAlign=middle;whiteSpace=wrap;rounded=0;fontStyle=1" parent="1" vertex="1">
          <mxGeometry x="200" y="1025" width="120" height="20" as="geometry" />
        </mxCell>
        <mxCell id="nDDD4RxxRrW6POsalyc5-53" value="&lt;font style=&quot;color: rgb(204, 102, 0);&quot;&gt;Max 60W&lt;/font&gt;" style="text;html=1;align=right;verticalAlign=middle;whiteSpace=wrap;rounded=0;" parent="1" vertex="1">
          <mxGeometry x="240" y="885" width="80" height="20" as="geometry" />
        </mxCell>
        <mxCell id="nDDD4RxxRrW6POsalyc5-54" value="&lt;font style=&quot;color: rgb(204, 102, 0);&quot;&gt;Max 12W&lt;/font&gt;" style="text;html=1;align=right;verticalAlign=middle;whiteSpace=wrap;rounded=0;" parent="1" vertex="1">
          <mxGeometry x="240" y="1045" width="80" height="20" as="geometry" />
        </mxCell>
        <mxCell id="nDDD4RxxRrW6POsalyc5-55" value="&lt;font style=&quot;font-size: 10px;&quot;&gt;Can be used for Firmware U&lt;/font&gt;&lt;span style=&quot;font-size: 10px; background-color: transparent; color: light-dark(rgb(103, 171, 159), rgb(58, 117, 107));&quot;&gt;pgrade / Reset&lt;/span&gt;" style="text;html=1;align=right;verticalAlign=middle;whiteSpace=wrap;rounded=0;fontColor=#67AB9F;" parent="1" vertex="1">
          <mxGeometry x="110" y="905" width="210" height="20" as="geometry" />
        </mxCell>
        <mxCell id="nDDD4RxxRrW6POsalyc5-68" value="Connector" style="text;html=1;align=center;verticalAlign=middle;whiteSpace=wrap;rounded=0;fontStyle=1;fontSize=22;" parent="1" vertex="1">
          <mxGeometry x="600" y="1600" width="160" height="40" as="geometry" />
        </mxCell>
        <mxCell id="nDDD4RxxRrW6POsalyc5-69" value="&lt;ul&gt;&lt;li&gt;4 poles&lt;/li&gt;&lt;li&gt;1x4 / 2x2 configurations&lt;/li&gt;&lt;li&gt;Connectors / Terminal Blocks&lt;/li&gt;&lt;/ul&gt;" style="text;html=1;align=left;verticalAlign=middle;whiteSpace=wrap;rounded=0;" parent="1" vertex="1">
          <mxGeometry x="570" y="1640" width="220" height="80" as="geometry" />
        </mxCell>
        <mxCell id="nDDD4RxxRrW6POsalyc5-70" value="" style="endArrow=none;html=1;rounded=0;strokeColor=#666666;" parent="1" edge="1">
          <mxGeometry width="50" height="50" relative="1" as="geometry">
            <mxPoint x="780" y="1639.52" as="sourcePoint" />
            <mxPoint x="580" y="1640" as="targetPoint" />
          </mxGeometry>
        </mxCell>
        <mxCell id="nDDD4RxxRrW6POsalyc5-71" value="" style="ellipse;whiteSpace=wrap;html=1;aspect=fixed;fillColor=#CC6600;strokeColor=none;" parent="1" vertex="1">
          <mxGeometry x="920" y="1640" width="10" height="10" as="geometry" />
        </mxCell>
        <mxCell id="nDDD4RxxRrW6POsalyc5-72" value="" style="ellipse;whiteSpace=wrap;html=1;aspect=fixed;fillColor=#CC6600;strokeColor=none;" parent="1" vertex="1">
          <mxGeometry x="940" y="1640" width="10" height="10" as="geometry" />
        </mxCell>
        <mxCell id="nDDD4RxxRrW6POsalyc5-73" value="" style="ellipse;whiteSpace=wrap;html=1;aspect=fixed;fillColor=#CC6600;strokeColor=none;" parent="1" vertex="1">
          <mxGeometry x="960" y="1640" width="10" height="10" as="geometry" />
        </mxCell>
        <mxCell id="nDDD4RxxRrW6POsalyc5-74" value="" style="ellipse;whiteSpace=wrap;html=1;aspect=fixed;fillColor=#CC6600;strokeColor=none;" parent="1" vertex="1">
          <mxGeometry x="980" y="1640" width="10" height="10" as="geometry" />
        </mxCell>
        <mxCell id="nDDD4RxxRrW6POsalyc5-75" value="" style="endArrow=none;html=1;rounded=0;strokeColor=#999999;" parent="1" edge="1">
          <mxGeometry width="50" height="50" relative="1" as="geometry">
            <mxPoint x="900" y="1690" as="sourcePoint" />
            <mxPoint x="920" y="1660" as="targetPoint" />
          </mxGeometry>
        </mxCell>
        <mxCell id="nDDD4RxxRrW6POsalyc5-76" value="" style="endArrow=none;html=1;rounded=0;strokeColor=#999999;" parent="1" edge="1">
          <mxGeometry width="50" height="50" relative="1" as="geometry">
            <mxPoint x="925" y="1710" as="sourcePoint" />
            <mxPoint x="945" y="1660" as="targetPoint" />
          </mxGeometry>
        </mxCell>
        <mxCell id="nDDD4RxxRrW6POsalyc5-77" value="" style="endArrow=none;html=1;rounded=0;strokeColor=#999999;" parent="1" edge="1">
          <mxGeometry width="50" height="50" relative="1" as="geometry">
            <mxPoint x="980" y="1710" as="sourcePoint" />
            <mxPoint x="965" y="1660" as="targetPoint" />
          </mxGeometry>
        </mxCell>
        <mxCell id="nDDD4RxxRrW6POsalyc5-78" value="" style="endArrow=none;html=1;rounded=0;strokeColor=#999999;" parent="1" edge="1">
          <mxGeometry width="50" height="50" relative="1" as="geometry">
            <mxPoint x="1010" y="1690" as="sourcePoint" />
            <mxPoint x="990" y="1660" as="targetPoint" />
          </mxGeometry>
        </mxCell>
        <mxCell id="nDDD4RxxRrW6POsalyc5-79" value="&lt;font style=&quot;font-size: 10px;&quot;&gt;Data -&lt;/font&gt;" style="text;html=1;align=center;verticalAlign=middle;whiteSpace=wrap;rounded=0;rotation=90;fontColor=#67AB9F;fontStyle=1" parent="1" vertex="1">
          <mxGeometry x="875" y="1700" width="40" height="20" as="geometry" />
        </mxCell>
        <mxCell id="nDDD4RxxRrW6POsalyc5-80" value="&lt;font style=&quot;font-size: 10px;&quot;&gt;Data +&lt;/font&gt;" style="text;html=1;align=center;verticalAlign=middle;whiteSpace=wrap;rounded=0;rotation=90;fontColor=#67AB9F;fontStyle=1" parent="1" vertex="1">
          <mxGeometry x="905" y="1720" width="40" height="20" as="geometry" />
        </mxCell>
        <mxCell id="nDDD4RxxRrW6POsalyc5-81" value="&lt;font style=&quot;font-size: 10px;&quot;&gt;GND&lt;/font&gt;" style="text;html=1;align=center;verticalAlign=middle;whiteSpace=wrap;rounded=0;rotation=90;fontStyle=1" parent="1" vertex="1">
          <mxGeometry x="960" y="1720" width="40" height="20" as="geometry" />
        </mxCell>
        <mxCell id="nDDD4RxxRrW6POsalyc5-82" value="&lt;font style=&quot;font-size: 10px;&quot;&gt;+12V&lt;/font&gt;" style="text;html=1;align=center;verticalAlign=middle;whiteSpace=wrap;rounded=0;rotation=90;fontColor=#FFD966;fontStyle=1" parent="1" vertex="1">
          <mxGeometry x="995" y="1700" width="40" height="20" as="geometry" />
        </mxCell>
        <mxCell id="nDDD4RxxRrW6POsalyc5-87" value="Conn." style="text;html=1;align=center;verticalAlign=middle;whiteSpace=wrap;rounded=0;fontSize=7;" parent="1" vertex="1">
          <mxGeometry x="915" y="1620" width="80" height="15" as="geometry" />
        </mxCell>
        <mxCell id="nDDD4RxxRrW6POsalyc5-122" value="" style="group;rotation=-90;" parent="1" vertex="1" connectable="0">
          <mxGeometry x="1170" y="1555" width="65.5" height="200" as="geometry" />
        </mxCell>
        <mxCell id="nDDD4RxxRrW6POsalyc5-105" value="" style="rounded=0;whiteSpace=wrap;html=1;fillColor=#B3B3B3;rotation=-90;" parent="nDDD4RxxRrW6POsalyc5-122" vertex="1">
          <mxGeometry x="8" y="103" width="20" height="20" as="geometry" />
        </mxCell>
        <mxCell id="nDDD4RxxRrW6POsalyc5-106" value="" style="rounded=0;whiteSpace=wrap;html=1;fillColor=#B3B3B3;rotation=-90;" parent="nDDD4RxxRrW6POsalyc5-122" vertex="1">
          <mxGeometry x="8" y="83" width="20" height="20" as="geometry" />
        </mxCell>
        <mxCell id="nDDD4RxxRrW6POsalyc5-107" value="" style="rounded=0;whiteSpace=wrap;html=1;fillColor=#B3B3B3;rotation=-90;" parent="nDDD4RxxRrW6POsalyc5-122" vertex="1">
          <mxGeometry x="28" y="103" width="20" height="20" as="geometry" />
        </mxCell>
        <mxCell id="nDDD4RxxRrW6POsalyc5-108" value="" style="rounded=0;whiteSpace=wrap;html=1;fillColor=#B3B3B3;rotation=-90;" parent="nDDD4RxxRrW6POsalyc5-122" vertex="1">
          <mxGeometry x="28" y="83" width="20" height="20" as="geometry" />
        </mxCell>
        <mxCell id="nDDD4RxxRrW6POsalyc5-109" value="" style="ellipse;whiteSpace=wrap;html=1;aspect=fixed;fillColor=#CC6600;strokeColor=none;rotation=-90;" parent="nDDD4RxxRrW6POsalyc5-122" vertex="1">
          <mxGeometry x="13" y="108" width="10" height="10" as="geometry" />
        </mxCell>
        <mxCell id="nDDD4RxxRrW6POsalyc5-110" value="" style="ellipse;whiteSpace=wrap;html=1;aspect=fixed;fillColor=#CC6600;strokeColor=none;rotation=-90;" parent="nDDD4RxxRrW6POsalyc5-122" vertex="1">
          <mxGeometry x="13" y="88" width="10" height="10" as="geometry" />
        </mxCell>
        <mxCell id="nDDD4RxxRrW6POsalyc5-111" value="" style="ellipse;whiteSpace=wrap;html=1;aspect=fixed;fillColor=#CC6600;strokeColor=none;rotation=-90;" parent="nDDD4RxxRrW6POsalyc5-122" vertex="1">
          <mxGeometry x="33" y="108" width="10" height="10" as="geometry" />
        </mxCell>
        <mxCell id="nDDD4RxxRrW6POsalyc5-112" value="" style="ellipse;whiteSpace=wrap;html=1;aspect=fixed;fillColor=#CC6600;strokeColor=none;rotation=-90;" parent="nDDD4RxxRrW6POsalyc5-122" vertex="1">
          <mxGeometry x="33" y="88" width="10" height="10" as="geometry" />
        </mxCell>
        <mxCell id="nDDD4RxxRrW6POsalyc5-113" value="" style="endArrow=none;html=1;rounded=0;strokeColor=#999999;" parent="nDDD4RxxRrW6POsalyc5-122" edge="1">
          <mxGeometry width="50" height="50" relative="1" as="geometry">
            <mxPoint x="88" y="123" as="sourcePoint" />
            <mxPoint x="58" y="113" as="targetPoint" />
          </mxGeometry>
        </mxCell>
        <mxCell id="nDDD4RxxRrW6POsalyc5-114" value="" style="endArrow=none;html=1;rounded=0;strokeColor=#999999;" parent="nDDD4RxxRrW6POsalyc5-122" edge="1">
          <mxGeometry width="50" height="50" relative="1" as="geometry">
            <mxPoint x="88" y="83" as="sourcePoint" />
            <mxPoint x="58" y="93" as="targetPoint" />
          </mxGeometry>
        </mxCell>
        <mxCell id="nDDD4RxxRrW6POsalyc5-115" value="" style="endArrow=none;html=1;rounded=0;strokeColor=#999999;" parent="nDDD4RxxRrW6POsalyc5-122" edge="1">
          <mxGeometry width="50" height="50" relative="1" as="geometry">
            <mxPoint x="-2" y="113" as="sourcePoint" />
            <mxPoint x="-27" y="123" as="targetPoint" />
          </mxGeometry>
        </mxCell>
        <mxCell id="nDDD4RxxRrW6POsalyc5-116" value="" style="endArrow=none;html=1;rounded=0;strokeColor=#999999;" parent="nDDD4RxxRrW6POsalyc5-122" edge="1">
          <mxGeometry width="50" height="50" relative="1" as="geometry">
            <mxPoint x="-27" y="83" as="sourcePoint" />
            <mxPoint x="-2" y="93" as="targetPoint" />
          </mxGeometry>
        </mxCell>
        <mxCell id="nDDD4RxxRrW6POsalyc5-117" value="&lt;font style=&quot;font-size: 10px;&quot;&gt;Data -&lt;/font&gt;" style="text;html=1;align=center;verticalAlign=middle;whiteSpace=wrap;rounded=0;rotation=0;fontColor=#67AB9F;fontStyle=1" parent="nDDD4RxxRrW6POsalyc5-122" vertex="1">
          <mxGeometry x="93" y="113" width="40" height="20" as="geometry" />
        </mxCell>
        <mxCell id="nDDD4RxxRrW6POsalyc5-118" value="&lt;font style=&quot;font-size: 10px;&quot;&gt;Data +&lt;/font&gt;" style="text;html=1;align=center;verticalAlign=middle;whiteSpace=wrap;rounded=0;rotation=0;fontColor=#67AB9F;fontStyle=1" parent="nDDD4RxxRrW6POsalyc5-122" vertex="1">
          <mxGeometry x="93" y="73" width="40" height="20" as="geometry" />
        </mxCell>
        <mxCell id="nDDD4RxxRrW6POsalyc5-119" value="&lt;font style=&quot;font-size: 10px;&quot;&gt;GND&lt;/font&gt;" style="text;html=1;align=center;verticalAlign=middle;whiteSpace=wrap;rounded=0;rotation=0;fontStyle=1" parent="nDDD4RxxRrW6POsalyc5-122" vertex="1">
          <mxGeometry x="-67" y="113" width="40" height="20" as="geometry" />
        </mxCell>
        <mxCell id="nDDD4RxxRrW6POsalyc5-120" value="&lt;font style=&quot;font-size: 10px;&quot;&gt;+12V&lt;/font&gt;" style="text;html=1;align=center;verticalAlign=middle;whiteSpace=wrap;rounded=0;rotation=0;fontColor=#FFD966;fontStyle=1" parent="nDDD4RxxRrW6POsalyc5-122" vertex="1">
          <mxGeometry x="-67" y="73" width="40" height="20" as="geometry" />
        </mxCell>
        <mxCell id="nDDD4RxxRrW6POsalyc5-121" value="Conn." style="text;html=1;align=center;verticalAlign=middle;whiteSpace=wrap;rounded=0;fontSize=7;rotation=0;" parent="nDDD4RxxRrW6POsalyc5-122" vertex="1">
          <mxGeometry x="7" y="67" width="40.5" height="15" as="geometry" />
        </mxCell>
        <mxCell id="nDDD4RxxRrW6POsalyc5-123" value="&lt;b&gt;PoE&amp;nbsp;&amp;nbsp;&lt;span style=&quot;text-align: left;&quot;&gt;🠆&amp;nbsp; DC&amp;nbsp; &amp;nbsp;&lt;/span&gt;&lt;/b&gt;&lt;b style=&quot;text-align: left; background-color: transparent; color: light-dark(rgb(0, 0, 0), rgb(255, 255, 255));&quot;&gt;module&lt;/b&gt;&lt;div&gt;&lt;font style=&quot;color: rgb(77, 77, 77);&quot;&gt;&amp;nbsp;Ag9712-2BR&lt;/font&gt;&lt;/div&gt;" style="rounded=0;whiteSpace=wrap;html=1;movable=1;resizable=1;rotatable=1;deletable=1;editable=1;locked=0;connectable=1;" parent="1" vertex="1">
          <mxGeometry x="1000" y="4200" width="220" height="60" as="geometry" />
        </mxCell>
        <mxCell id="nDDD4RxxRrW6POsalyc5-124" value="&lt;b&gt;Power Mux&lt;/b&gt;&lt;div&gt;&lt;font style=&quot;color: rgb(77, 77, 77);&quot;&gt;2x TPS25947&lt;/font&gt;&lt;/div&gt;" style="rounded=0;whiteSpace=wrap;html=1;movable=1;resizable=1;rotatable=1;deletable=1;editable=1;locked=0;connectable=1;" parent="1" vertex="1">
          <mxGeometry x="860" y="4000" width="120" height="60" as="geometry" />
        </mxCell>
        <mxCell id="nDDD4RxxRrW6POsalyc5-125" value="&lt;b&gt;Ethernet PHY&lt;/b&gt;&lt;div&gt;&lt;font style=&quot;color: rgb(77, 77, 77);&quot;&gt;W5500&lt;/font&gt;&lt;/div&gt;" style="rounded=0;whiteSpace=wrap;html=1;movable=1;resizable=1;rotatable=1;deletable=1;editable=1;locked=0;connectable=1;" parent="1" vertex="1">
          <mxGeometry x="1280" y="4200" width="100" height="60" as="geometry" />
        </mxCell>
        <mxCell id="nDDD4RxxRrW6POsalyc5-126" value="&lt;b&gt;Ethernet&lt;/b&gt;&lt;div&gt;&lt;b&gt;connector&lt;/b&gt;&lt;/div&gt;&lt;div&gt;&lt;br&gt;&lt;/div&gt;&lt;div&gt;&lt;font style=&quot;font-size: 10px; color: rgb(77, 77, 77);&quot;&gt;ARJM11C7-114-BA-EW2&lt;/font&gt;&lt;/div&gt;" style="rounded=0;whiteSpace=wrap;html=1;movable=1;resizable=1;rotatable=1;deletable=1;editable=1;locked=0;connectable=1;" parent="1" vertex="1">
          <mxGeometry x="1160" y="4420" width="160" height="160" as="geometry" />
        </mxCell>
        <mxCell id="nDDD4RxxRrW6POsalyc5-127" value="" style="endArrow=block;html=1;rounded=1;curved=0;endFill=1;strokeWidth=3;strokeColor=#FF8000;movable=1;resizable=1;rotatable=1;deletable=1;editable=1;locked=0;connectable=1;" parent="1" edge="1">
          <mxGeometry width="50" height="50" relative="1" as="geometry">
            <mxPoint x="1220" y="4400" as="sourcePoint" />
            <mxPoint x="1110" y="4280" as="targetPoint" />
            <Array as="points">
              <mxPoint x="1220" y="4340" />
              <mxPoint x="1110" y="4340" />
            </Array>
          </mxGeometry>
        </mxCell>
        <mxCell id="nDDD4RxxRrW6POsalyc5-128" value="" style="endArrow=block;startArrow=block;html=1;rounded=1;curved=0;strokeWidth=2;startFill=1;endFill=1;strokeColor=#4D4D4D;movable=1;resizable=1;rotatable=1;deletable=1;editable=1;locked=0;connectable=1;" parent="1" edge="1">
          <mxGeometry width="50" height="50" relative="1" as="geometry">
            <mxPoint x="1260" y="4400" as="sourcePoint" />
            <mxPoint x="1330" y="4280" as="targetPoint" />
            <Array as="points">
              <mxPoint x="1260" y="4340" />
              <mxPoint x="1330" y="4340" />
            </Array>
          </mxGeometry>
        </mxCell>
        <mxCell id="nDDD4RxxRrW6POsalyc5-130" value="" style="endArrow=block;html=1;rounded=1;strokeWidth=3;endFill=1;strokeColor=#FF8000;curved=0;movable=1;resizable=1;rotatable=1;deletable=1;editable=1;locked=0;connectable=1;" parent="1" edge="1">
          <mxGeometry width="50" height="50" relative="1" as="geometry">
            <mxPoint x="1109.76" y="4180" as="sourcePoint" />
            <mxPoint x="950" y="4080" as="targetPoint" />
            <Array as="points">
              <mxPoint x="1110" y="4130" />
              <mxPoint x="950" y="4130" />
            </Array>
          </mxGeometry>
        </mxCell>
        <mxCell id="nDDD4RxxRrW6POsalyc5-131" value="" style="endArrow=block;startArrow=block;html=1;rounded=1;curved=0;endFill=1;startFill=1;strokeColor=#4D4D4D;strokeWidth=2;" parent="1" edge="1">
          <mxGeometry width="50" height="50" relative="1" as="geometry">
            <mxPoint x="160" y="3440" as="sourcePoint" />
            <mxPoint x="260" y="3440" as="targetPoint" />
          </mxGeometry>
        </mxCell>
        <mxCell id="nDDD4RxxRrW6POsalyc5-132" value="&lt;b&gt;USB&lt;/b&gt;&lt;div&gt;&lt;b&gt;connector&lt;/b&gt;&lt;/div&gt;" style="rounded=0;whiteSpace=wrap;html=1;movable=1;resizable=1;rotatable=1;deletable=1;editable=1;locked=0;connectable=1;" parent="1" vertex="1">
          <mxGeometry x="715" y="4420" width="125" height="160" as="geometry" />
        </mxCell>
        <mxCell id="nDDD4RxxRrW6POsalyc5-133" value="" style="endArrow=block;html=1;rounded=1;strokeWidth=3;endFill=1;strokeColor=#66B2FF;curved=0;movable=1;resizable=1;rotatable=1;deletable=1;editable=1;locked=0;connectable=1;" parent="1" edge="1">
          <mxGeometry width="50" height="50" relative="1" as="geometry">
            <mxPoint x="800" y="4400" as="sourcePoint" />
            <mxPoint x="890" y="4080" as="targetPoint" />
            <Array as="points">
              <mxPoint x="800" y="4130" />
              <mxPoint x="890" y="4130" />
            </Array>
          </mxGeometry>
        </mxCell>
        <mxCell id="nDDD4RxxRrW6POsalyc5-135" value="&lt;b&gt;&lt;font style=&quot;font-size: 24px;&quot;&gt;MCU&lt;/font&gt;&lt;/b&gt;&lt;div&gt;&lt;b style=&quot;&quot;&gt;&lt;font&gt;&lt;br&gt;&lt;/font&gt;&lt;/b&gt;&lt;div&gt;&lt;font style=&quot;color: rgb(77, 77, 77);&quot;&gt;STM32G0B1...&lt;/font&gt;&lt;/div&gt;&lt;/div&gt;" style="rounded=0;whiteSpace=wrap;html=1;movable=1;resizable=1;rotatable=1;deletable=1;editable=1;locked=0;connectable=1;" parent="1" vertex="1">
          <mxGeometry x="820" y="3320" width="200" height="180" as="geometry" />
        </mxCell>
        <mxCell id="nDDD4RxxRrW6POsalyc5-137" value="" style="endArrow=block;html=1;rounded=1;strokeWidth=3;endFill=1;strokeColor=#FF6666;curved=0;movable=1;resizable=1;rotatable=1;deletable=1;editable=1;locked=0;connectable=1;" parent="1" edge="1">
          <mxGeometry width="50" height="50" relative="1" as="geometry">
            <mxPoint x="900" y="3820" as="sourcePoint" />
            <mxPoint x="900" y="3741" as="targetPoint" />
          </mxGeometry>
        </mxCell>
        <mxCell id="nDDD4RxxRrW6POsalyc5-138" value="&lt;b&gt;DC-DC&lt;/b&gt;&lt;div&gt;&lt;b&gt;Buck Converter&lt;/b&gt;&lt;/div&gt;" style="rounded=0;whiteSpace=wrap;html=1;movable=1;resizable=1;rotatable=1;deletable=1;editable=1;locked=0;connectable=1;" parent="1" vertex="1">
          <mxGeometry x="840" y="3640" width="160" height="80" as="geometry" />
        </mxCell>
        <mxCell id="nDDD4RxxRrW6POsalyc5-139" value="" style="endArrow=block;html=1;rounded=1;strokeWidth=3;endFill=1;strokeColor=#00CC66;curved=0;movable=1;resizable=1;rotatable=1;deletable=1;editable=1;locked=0;connectable=1;" parent="1" edge="1">
          <mxGeometry width="50" height="50" relative="1" as="geometry">
            <mxPoint x="920" y="3620" as="sourcePoint" />
            <mxPoint x="920" y="3520" as="targetPoint" />
          </mxGeometry>
        </mxCell>
        <mxCell id="nDDD4RxxRrW6POsalyc5-140" value="" style="endArrow=block;startArrow=block;html=1;rounded=1;curved=0;endFill=1;startFill=1;strokeColor=#4D4D4D;strokeWidth=2;movable=1;resizable=1;rotatable=1;deletable=1;editable=1;locked=0;connectable=1;" parent="1" edge="1">
          <mxGeometry width="50" height="50" relative="1" as="geometry">
            <mxPoint x="1330" y="4180" as="sourcePoint" />
            <mxPoint x="980" y="3520" as="targetPoint" />
            <Array as="points">
              <mxPoint x="1330" y="3940" />
              <mxPoint x="1330" y="3580" />
              <mxPoint x="980" y="3580" />
            </Array>
          </mxGeometry>
        </mxCell>
        <mxCell id="nDDD4RxxRrW6POsalyc5-141" value="" style="endArrow=block;startArrow=block;html=1;rounded=1;curved=0;endFill=1;startFill=1;strokeColor=#4D4D4D;strokeWidth=2;movable=1;resizable=1;rotatable=1;deletable=1;editable=1;locked=0;connectable=1;" parent="1" edge="1">
          <mxGeometry width="50" height="50" relative="1" as="geometry">
            <mxPoint x="755" y="4400" as="sourcePoint" />
            <mxPoint x="860" y="3520" as="targetPoint" />
            <Array as="points">
              <mxPoint x="760" y="3580" />
              <mxPoint x="860" y="3580" />
            </Array>
          </mxGeometry>
        </mxCell>
        <mxCell id="nDDD4RxxRrW6POsalyc5-143" value="&lt;b&gt;RS-485&amp;nbsp; Transreceiver&lt;/b&gt;&lt;div&gt;&lt;font style=&quot;color: rgb(77, 77, 77); font-size: 11px;&quot;&gt;THVD1450DR&lt;/font&gt;&lt;/div&gt;" style="rounded=0;whiteSpace=wrap;html=1;movable=1;resizable=1;rotatable=1;deletable=1;editable=1;locked=0;connectable=1;" parent="1" vertex="1">
          <mxGeometry x="740" y="3060" width="160" height="80" as="geometry" />
        </mxCell>
        <mxCell id="nDDD4RxxRrW6POsalyc5-144" value="&lt;b&gt;RS-485&amp;nbsp; Transreceiver&lt;/b&gt;&lt;div&gt;&lt;span style=&quot;color: rgb(77, 77, 77); font-size: 11px; background-color: transparent;&quot;&gt;THVD1450DR&lt;/span&gt;&lt;/div&gt;" style="rounded=0;whiteSpace=wrap;html=1;movable=1;resizable=1;rotatable=1;deletable=1;editable=1;locked=0;connectable=1;" parent="1" vertex="1">
          <mxGeometry x="940" y="3060" width="160" height="80" as="geometry" />
        </mxCell>
        <mxCell id="nDDD4RxxRrW6POsalyc5-147" value="" style="endArrow=block;startArrow=block;html=1;rounded=1;curved=0;endFill=1;startFill=1;strokeColor=#4D4D4D;strokeWidth=2;movable=1;resizable=1;rotatable=1;deletable=1;editable=1;locked=0;connectable=1;" parent="1" edge="1">
          <mxGeometry width="50" height="50" relative="1" as="geometry">
            <mxPoint x="900" y="3300" as="sourcePoint" />
            <mxPoint x="820" y="3160" as="targetPoint" />
            <Array as="points">
              <mxPoint x="900" y="3220" />
              <mxPoint x="820" y="3220" />
            </Array>
          </mxGeometry>
        </mxCell>
        <mxCell id="nDDD4RxxRrW6POsalyc5-148" value="" style="endArrow=block;startArrow=block;html=1;rounded=1;curved=0;endFill=1;startFill=1;strokeColor=#4D4D4D;strokeWidth=2;movable=1;resizable=1;rotatable=1;deletable=1;editable=1;locked=0;connectable=1;" parent="1" edge="1">
          <mxGeometry width="50" height="50" relative="1" as="geometry">
            <mxPoint x="940" y="3300" as="sourcePoint" />
            <mxPoint x="1020" y="3160" as="targetPoint" />
            <Array as="points">
              <mxPoint x="940" y="3220" />
              <mxPoint x="1020" y="3220" />
            </Array>
          </mxGeometry>
        </mxCell>
        <mxCell id="nDDD4RxxRrW6POsalyc5-154" value="" style="group;movable=1;resizable=1;rotatable=1;deletable=1;editable=1;locked=0;connectable=1;" parent="1" vertex="1" connectable="0">
          <mxGeometry x="760" y="3160" height="55" as="geometry" />
        </mxCell>
        <mxCell id="nDDD4RxxRrW6POsalyc5-155" value="" style="endArrow=block;html=1;rounded=1;strokeWidth=3;endFill=1;strokeColor=#00CC66;curved=0;movable=1;resizable=1;rotatable=1;deletable=1;editable=1;locked=0;connectable=1;" parent="nDDD4RxxRrW6POsalyc5-154" edge="1">
          <mxGeometry width="50" height="50" relative="1" as="geometry">
            <mxPoint y="30" as="sourcePoint" />
            <mxPoint as="targetPoint" />
          </mxGeometry>
        </mxCell>
        <mxCell id="nDDD4RxxRrW6POsalyc5-156" value="" style="endArrow=none;dashed=1;html=1;strokeWidth=3;rounded=0;strokeColor=#00CC66;dashPattern=1 1;movable=1;resizable=1;rotatable=1;deletable=1;editable=1;locked=0;connectable=1;" parent="1" edge="1">
          <mxGeometry width="50" height="50" relative="1" as="geometry">
            <mxPoint x="760" y="3205" as="sourcePoint" />
            <mxPoint x="760" y="3190" as="targetPoint" />
            <Array as="points">
              <mxPoint x="760" y="3195" />
            </Array>
          </mxGeometry>
        </mxCell>
        <mxCell id="nDDD4RxxRrW6POsalyc5-159" value="" style="endArrow=block;html=1;rounded=1;strokeWidth=3;endFill=1;strokeColor=#00CC66;curved=0;movable=1;resizable=1;rotatable=1;deletable=1;editable=1;locked=0;connectable=1;" parent="1" edge="1">
          <mxGeometry width="50" height="50" relative="1" as="geometry">
            <mxPoint x="1080" y="3190" as="sourcePoint" />
            <mxPoint x="1080" y="3160" as="targetPoint" />
          </mxGeometry>
        </mxCell>
        <mxCell id="nDDD4RxxRrW6POsalyc5-160" value="" style="endArrow=none;dashed=1;html=1;strokeWidth=3;rounded=0;strokeColor=#00CC66;dashPattern=1 1;movable=1;resizable=1;rotatable=1;deletable=1;editable=1;locked=0;connectable=1;" parent="1" edge="1">
          <mxGeometry width="50" height="50" relative="1" as="geometry">
            <mxPoint x="1080" y="3205" as="sourcePoint" />
            <mxPoint x="1080" y="3190" as="targetPoint" />
            <Array as="points">
              <mxPoint x="1080" y="3195" />
            </Array>
          </mxGeometry>
        </mxCell>
        <mxCell id="nDDD4RxxRrW6POsalyc5-166" value="" style="group;movable=1;resizable=1;rotatable=1;deletable=1;editable=1;locked=0;connectable=1;" parent="1" vertex="1" connectable="0">
          <mxGeometry x="1020" y="3660" width="40" as="geometry" />
        </mxCell>
        <mxCell id="nDDD4RxxRrW6POsalyc5-167" value="" style="endArrow=block;html=1;rounded=1;strokeWidth=3;endFill=1;strokeColor=#00CC66;curved=0;movable=1;resizable=1;rotatable=1;deletable=1;editable=1;locked=0;connectable=1;" parent="nDDD4RxxRrW6POsalyc5-166" edge="1">
          <mxGeometry width="50" height="50" relative="1" as="geometry">
            <mxPoint x="15" as="sourcePoint" />
            <mxPoint x="40" as="targetPoint" />
          </mxGeometry>
        </mxCell>
        <mxCell id="nDDD4RxxRrW6POsalyc5-168" value="" style="endArrow=none;dashed=1;html=1;strokeWidth=3;rounded=0;strokeColor=#00CC66;dashPattern=1 1;movable=1;resizable=1;rotatable=1;deletable=1;editable=1;locked=0;connectable=1;" parent="nDDD4RxxRrW6POsalyc5-166" edge="1">
          <mxGeometry width="50" height="50" relative="1" as="geometry">
            <mxPoint as="sourcePoint" />
            <mxPoint x="15" as="targetPoint" />
            <Array as="points" />
          </mxGeometry>
        </mxCell>
        <mxCell id="nDDD4RxxRrW6POsalyc5-169" value="" style="group;movable=1;resizable=1;rotatable=1;deletable=1;editable=1;locked=0;connectable=1;" parent="1" vertex="1" connectable="0">
          <mxGeometry x="1020" y="3700" width="40" as="geometry" />
        </mxCell>
        <mxCell id="nDDD4RxxRrW6POsalyc5-170" value="" style="endArrow=block;html=1;rounded=1;strokeWidth=3;endFill=1;strokeColor=#00CC66;curved=0;movable=1;resizable=1;rotatable=1;deletable=1;editable=1;locked=0;connectable=1;" parent="nDDD4RxxRrW6POsalyc5-169" edge="1">
          <mxGeometry width="50" height="50" relative="1" as="geometry">
            <mxPoint x="15" as="sourcePoint" />
            <mxPoint x="40" as="targetPoint" />
          </mxGeometry>
        </mxCell>
        <mxCell id="nDDD4RxxRrW6POsalyc5-171" value="" style="endArrow=none;dashed=1;html=1;strokeWidth=3;rounded=0;strokeColor=#00CC66;dashPattern=1 1;movable=1;resizable=1;rotatable=1;deletable=1;editable=1;locked=0;connectable=1;" parent="nDDD4RxxRrW6POsalyc5-169" edge="1">
          <mxGeometry width="50" height="50" relative="1" as="geometry">
            <mxPoint as="sourcePoint" />
            <mxPoint x="15" as="targetPoint" />
            <Array as="points" />
          </mxGeometry>
        </mxCell>
        <mxCell id="nDDD4RxxRrW6POsalyc5-177" value="&lt;b&gt;BUS&lt;/b&gt;&lt;div&gt;&lt;b&gt;connector&lt;/b&gt;&lt;/div&gt;&lt;div&gt;&lt;span style=&quot;color: rgb(77, 77, 77); font-size: 11px;&quot;&gt;TBP03R1-350-04BE&lt;/span&gt;&lt;b&gt;&lt;/b&gt;&lt;/div&gt;" style="rounded=0;whiteSpace=wrap;html=1;movable=1;resizable=1;rotatable=1;deletable=1;editable=1;locked=0;connectable=1;" parent="1" vertex="1">
          <mxGeometry x="740" y="2840" width="160" height="100" as="geometry" />
        </mxCell>
        <mxCell id="nDDD4RxxRrW6POsalyc5-182" value="" style="endArrow=block;startArrow=block;html=1;rounded=1;curved=0;endFill=1;startFill=1;strokeColor=#4D4D4D;strokeWidth=2;movable=1;resizable=1;rotatable=1;deletable=1;editable=1;locked=0;connectable=1;" parent="1" edge="1">
          <mxGeometry width="50" height="50" relative="1" as="geometry">
            <mxPoint x="819.52" y="3040" as="sourcePoint" />
            <mxPoint x="820" y="2960" as="targetPoint" />
          </mxGeometry>
        </mxCell>
        <mxCell id="nDDD4RxxRrW6POsalyc5-183" value="" style="endArrow=block;startArrow=block;html=1;rounded=1;curved=0;endFill=1;startFill=1;strokeColor=#4D4D4D;strokeWidth=2;movable=1;resizable=1;rotatable=1;deletable=1;editable=1;locked=0;connectable=1;" parent="1" edge="1">
          <mxGeometry width="50" height="50" relative="1" as="geometry">
            <mxPoint x="1019.76" y="3040" as="sourcePoint" />
            <mxPoint x="1020" y="2960" as="targetPoint" />
          </mxGeometry>
        </mxCell>
        <mxCell id="nDDD4RxxRrW6POsalyc5-193" value="" style="endArrow=block;html=1;rounded=1;strokeWidth=3;endFill=1;strokeColor=#FF8000;curved=0;" parent="1" edge="1">
          <mxGeometry width="50" height="50" relative="1" as="geometry">
            <mxPoint x="260" y="3619.8" as="sourcePoint" />
            <mxPoint x="160" y="3619.8" as="targetPoint" />
          </mxGeometry>
        </mxCell>
        <mxCell id="nDDD4RxxRrW6POsalyc5-194" value="" style="endArrow=block;html=1;rounded=1;strokeWidth=3;endFill=1;strokeColor=#00CC66;curved=0;" parent="1" edge="1">
          <mxGeometry width="50" height="50" relative="1" as="geometry">
            <mxPoint x="260" y="3679.8" as="sourcePoint" />
            <mxPoint x="160" y="3679.8" as="targetPoint" />
          </mxGeometry>
        </mxCell>
        <mxCell id="nDDD4RxxRrW6POsalyc5-196" value="Data signals" style="text;html=1;align=left;verticalAlign=middle;whiteSpace=wrap;rounded=0;fontStyle=1" parent="1" vertex="1">
          <mxGeometry x="280" y="3420" width="80" height="40" as="geometry" />
        </mxCell>
        <mxCell id="nDDD4RxxRrW6POsalyc5-197" value="+12V&amp;nbsp;&lt;font style=&quot;font-size: 13px;&quot;&gt;÷&lt;/font&gt;&amp;nbsp;+15V" style="text;html=1;align=left;verticalAlign=middle;whiteSpace=wrap;rounded=0;fontStyle=1" parent="1" vertex="1">
          <mxGeometry x="280" y="3480" width="75" height="40" as="geometry" />
        </mxCell>
        <mxCell id="nDDD4RxxRrW6POsalyc5-198" value="" style="endArrow=block;html=1;rounded=1;strokeWidth=3;endFill=1;strokeColor=#FF6666;curved=0;" parent="1" edge="1">
          <mxGeometry width="50" height="50" relative="1" as="geometry">
            <mxPoint x="260" y="3499.71" as="sourcePoint" />
            <mxPoint x="160" y="3499.71" as="targetPoint" />
          </mxGeometry>
        </mxCell>
        <mxCell id="nDDD4RxxRrW6POsalyc5-199" value="+12V" style="text;html=1;align=left;verticalAlign=middle;whiteSpace=wrap;rounded=0;fontStyle=1" parent="1" vertex="1">
          <mxGeometry x="280" y="3600" width="40" height="40" as="geometry" />
        </mxCell>
        <mxCell id="nDDD4RxxRrW6POsalyc5-200" value="+3.3V" style="text;html=1;align=left;verticalAlign=middle;whiteSpace=wrap;rounded=0;fontStyle=1" parent="1" vertex="1">
          <mxGeometry x="280" y="3660" width="40" height="40" as="geometry" />
        </mxCell>
        <mxCell id="nDDD4RxxRrW6POsalyc5-202" value="GATEWAY" style="text;html=1;align=center;verticalAlign=middle;whiteSpace=wrap;rounded=0;fontStyle=5;fontSize=32;movable=1;resizable=1;rotatable=1;deletable=1;editable=1;locked=0;connectable=1;" parent="1" vertex="1">
          <mxGeometry x="520" y="3380" width="220" height="60" as="geometry" />
        </mxCell>
        <mxCell id="hzWnzZG3lfi0qjv67kcp-1" value="" style="endArrow=block;startArrow=block;html=1;rounded=1;startFill=1;endFill=1;strokeColor=#4D4D4D;curved=0;startSize=7;endSize=7;" parent="1" edge="1">
          <mxGeometry width="50" height="50" relative="1" as="geometry">
            <mxPoint x="1000" y="915" as="sourcePoint" />
            <mxPoint x="1160" y="885" as="targetPoint" />
            <Array as="points">
              <mxPoint x="1065" y="915" />
              <mxPoint x="1100" y="885" />
            </Array>
          </mxGeometry>
        </mxCell>
        <mxCell id="hzWnzZG3lfi0qjv67kcp-2" value="" style="endArrow=block;startArrow=block;html=1;rounded=1;startFill=1;endFill=1;strokeColor=#CC6600;curved=0;startSize=7;endSize=7;" parent="1" edge="1">
          <mxGeometry width="50" height="50" relative="1" as="geometry">
            <mxPoint x="1000" y="1005" as="sourcePoint" />
            <mxPoint x="1160" y="1035" as="targetPoint" />
            <Array as="points">
              <mxPoint x="1060" y="1005" />
              <mxPoint x="1100" y="1035" />
            </Array>
          </mxGeometry>
        </mxCell>
        <mxCell id="hzWnzZG3lfi0qjv67kcp-16" value="" style="group;rotation=90;movable=1;resizable=1;rotatable=1;deletable=1;editable=1;locked=0;connectable=1;" parent="1" vertex="1" connectable="0">
          <mxGeometry x="1195" y="3756" height="45" as="geometry" />
        </mxCell>
        <mxCell id="hzWnzZG3lfi0qjv67kcp-18" value="" style="endArrow=none;dashed=1;html=1;strokeWidth=3;rounded=0;strokeColor=#FF6666;dashPattern=1 1;movable=1;resizable=1;rotatable=1;deletable=1;editable=1;locked=0;connectable=1;" parent="hzWnzZG3lfi0qjv67kcp-16" edge="1">
          <mxGeometry width="50" height="50" relative="1" as="geometry">
            <mxPoint x="-25" y="24" as="sourcePoint" />
            <mxPoint x="-5" y="24" as="targetPoint" />
            <Array as="points" />
          </mxGeometry>
        </mxCell>
        <mxCell id="hzWnzZG3lfi0qjv67kcp-21" value="" style="endArrow=block;html=1;rounded=1;strokeWidth=3;endFill=1;strokeColor=#99CCFF;curved=0;" parent="1" edge="1">
          <mxGeometry width="50" height="50" relative="1" as="geometry">
            <mxPoint x="260" y="3560" as="sourcePoint" />
            <mxPoint x="160" y="3560" as="targetPoint" />
          </mxGeometry>
        </mxCell>
        <mxCell id="hzWnzZG3lfi0qjv67kcp-22" value="+5V / +15V" style="text;html=1;align=left;verticalAlign=middle;whiteSpace=wrap;rounded=0;fontStyle=1" parent="1" vertex="1">
          <mxGeometry x="280" y="3540" width="75" height="40" as="geometry" />
        </mxCell>
        <mxCell id="hzWnzZG3lfi0qjv67kcp-24" value="&lt;b&gt;Switch&lt;/b&gt;" style="rounded=0;whiteSpace=wrap;html=1;movable=1;resizable=1;rotatable=1;deletable=1;editable=1;locked=0;connectable=1;" parent="1" vertex="1">
          <mxGeometry x="1090" y="3765" width="60.29" height="30" as="geometry" />
        </mxCell>
        <mxCell id="hzWnzZG3lfi0qjv67kcp-25" value="" style="group;movable=1;resizable=1;rotatable=1;deletable=1;editable=1;locked=0;connectable=1;" parent="1" vertex="1" connectable="0">
          <mxGeometry x="1080" y="2955" height="45" as="geometry" />
        </mxCell>
        <mxCell id="hzWnzZG3lfi0qjv67kcp-26" value="" style="endArrow=block;html=1;rounded=1;strokeWidth=3;endFill=1;strokeColor=#FF6666;curved=0;movable=1;resizable=1;rotatable=1;deletable=1;editable=1;locked=0;connectable=1;" parent="hzWnzZG3lfi0qjv67kcp-25" edge="1">
          <mxGeometry width="50" height="50" relative="1" as="geometry">
            <mxPoint y="30" as="sourcePoint" />
            <mxPoint as="targetPoint" />
          </mxGeometry>
        </mxCell>
        <mxCell id="hzWnzZG3lfi0qjv67kcp-27" value="" style="endArrow=none;dashed=1;html=1;strokeWidth=3;rounded=0;strokeColor=#FF6666;dashPattern=1 1;movable=1;resizable=1;rotatable=1;deletable=1;editable=1;locked=0;connectable=1;" parent="hzWnzZG3lfi0qjv67kcp-25" edge="1">
          <mxGeometry width="50" height="50" relative="1" as="geometry">
            <mxPoint y="45" as="sourcePoint" />
            <mxPoint y="30" as="targetPoint" />
            <Array as="points">
              <mxPoint y="35" />
            </Array>
          </mxGeometry>
        </mxCell>
        <mxCell id="hzWnzZG3lfi0qjv67kcp-30" value="" style="group;movable=1;resizable=1;rotatable=1;deletable=1;editable=1;locked=0;connectable=1;" parent="1" vertex="1" connectable="0">
          <mxGeometry x="760" y="2960" height="45" as="geometry" />
        </mxCell>
        <mxCell id="hzWnzZG3lfi0qjv67kcp-31" value="" style="endArrow=block;html=1;rounded=1;strokeWidth=3;endFill=1;strokeColor=#FF6666;curved=0;movable=1;resizable=1;rotatable=1;deletable=1;editable=1;locked=0;connectable=1;" parent="hzWnzZG3lfi0qjv67kcp-30" edge="1">
          <mxGeometry width="50" height="50" relative="1" as="geometry">
            <mxPoint y="30" as="sourcePoint" />
            <mxPoint as="targetPoint" />
          </mxGeometry>
        </mxCell>
        <mxCell id="hzWnzZG3lfi0qjv67kcp-32" value="" style="endArrow=none;dashed=1;html=1;strokeWidth=3;rounded=0;strokeColor=#FF6666;dashPattern=1 1;movable=1;resizable=1;rotatable=1;deletable=1;editable=1;locked=0;connectable=1;" parent="hzWnzZG3lfi0qjv67kcp-30" edge="1">
          <mxGeometry width="50" height="50" relative="1" as="geometry">
            <mxPoint y="45" as="sourcePoint" />
            <mxPoint y="30" as="targetPoint" />
            <Array as="points">
              <mxPoint y="35" />
            </Array>
          </mxGeometry>
        </mxCell>
        <mxCell id="hzWnzZG3lfi0qjv67kcp-17" value="" style="endArrow=block;html=1;rounded=1;strokeWidth=3;endFill=1;strokeColor=#FF6666;curved=0;movable=1;resizable=1;rotatable=1;deletable=1;editable=1;locked=0;connectable=1;" parent="1" edge="1">
          <mxGeometry width="50" height="50" relative="1" as="geometry">
            <mxPoint x="1190" y="3780" as="sourcePoint" />
            <mxPoint x="1220" y="3780" as="targetPoint" />
          </mxGeometry>
        </mxCell>
        <mxCell id="hzWnzZG3lfi0qjv67kcp-40" value="" style="group;rotation=-90;fillColor=none;strokeColor=none;movable=1;resizable=1;rotatable=1;deletable=1;editable=1;locked=0;connectable=1;" parent="1" vertex="1" connectable="0">
          <mxGeometry x="1095" y="3730" width="50.289999999999964" height="0.11999999999989086" as="geometry" />
        </mxCell>
        <mxCell id="hzWnzZG3lfi0qjv67kcp-36" value="" style="endArrow=block;startArrow=none;html=1;rounded=1;curved=0;endFill=1;startFill=0;strokeColor=#BB88FF;strokeWidth=2;movable=1;resizable=1;rotatable=1;deletable=1;editable=1;locked=0;connectable=1;" parent="hzWnzZG3lfi0qjv67kcp-40" edge="1">
          <mxGeometry width="50" height="50" relative="1" as="geometry">
            <mxPoint x="25" y="-5" as="sourcePoint" />
            <mxPoint x="25" y="25" as="targetPoint" />
          </mxGeometry>
        </mxCell>
        <mxCell id="hzWnzZG3lfi0qjv67kcp-39" value="" style="endArrow=none;startArrow=none;html=1;rounded=1;curved=0;endFill=0;startFill=0;strokeColor=#BB88FF;strokeWidth=2;dashed=1;dashPattern=1 1;movable=1;resizable=1;rotatable=1;deletable=1;editable=1;locked=0;connectable=1;" parent="hzWnzZG3lfi0qjv67kcp-40" edge="1">
          <mxGeometry width="50" height="50" relative="1" as="geometry">
            <mxPoint x="25" y="-5" as="sourcePoint" />
            <mxPoint x="25" y="-25" as="targetPoint" />
          </mxGeometry>
        </mxCell>
        <mxCell id="hzWnzZG3lfi0qjv67kcp-43" value="" style="endArrow=block;html=1;rounded=1;strokeWidth=3;endFill=1;strokeColor=#FF6666;curved=0;movable=1;resizable=1;rotatable=1;deletable=1;editable=1;locked=0;connectable=1;" parent="1" edge="1">
          <mxGeometry width="50" height="50" relative="1" as="geometry">
            <mxPoint x="940" y="3820" as="sourcePoint" />
            <mxPoint x="1070" y="3780" as="targetPoint" />
            <Array as="points">
              <mxPoint x="940" y="3780" />
            </Array>
          </mxGeometry>
        </mxCell>
        <mxCell id="hzWnzZG3lfi0qjv67kcp-46" value="&lt;b&gt;Current Monitor&lt;/b&gt;&lt;div&gt;&lt;font style=&quot;color: rgb(77, 77, 77);&quot;&gt;INA220&lt;/font&gt;&lt;/div&gt;" style="rounded=0;whiteSpace=wrap;html=1;movable=1;resizable=1;rotatable=1;deletable=1;editable=1;locked=0;connectable=1;" parent="1" vertex="1">
          <mxGeometry x="860" y="3840" width="120" height="60" as="geometry" />
        </mxCell>
        <mxCell id="hzWnzZG3lfi0qjv67kcp-47" value="" style="endArrow=block;html=1;rounded=1;strokeWidth=3;endFill=1;strokeColor=#FF6666;curved=0;movable=1;resizable=1;rotatable=1;deletable=1;editable=1;locked=0;connectable=1;" parent="1" edge="1">
          <mxGeometry width="50" height="50" relative="1" as="geometry">
            <mxPoint x="919.76" y="3980" as="sourcePoint" />
            <mxPoint x="919.76" y="3920" as="targetPoint" />
          </mxGeometry>
        </mxCell>
        <mxCell id="hzWnzZG3lfi0qjv67kcp-48" value="" style="group;rotation=-180;movable=1;resizable=1;rotatable=1;deletable=1;editable=1;locked=0;connectable=1;" parent="1" vertex="1" connectable="0">
          <mxGeometry x="1000" y="3870" width="40" as="geometry" />
        </mxCell>
        <mxCell id="hzWnzZG3lfi0qjv67kcp-49" value="" style="endArrow=block;html=1;rounded=1;strokeWidth=3;endFill=1;strokeColor=#00CC66;curved=0;movable=1;resizable=1;rotatable=1;deletable=1;editable=1;locked=0;connectable=1;" parent="hzWnzZG3lfi0qjv67kcp-48" edge="1">
          <mxGeometry width="50" height="50" relative="1" as="geometry">
            <mxPoint x="25" as="sourcePoint" />
            <mxPoint as="targetPoint" />
          </mxGeometry>
        </mxCell>
        <mxCell id="hzWnzZG3lfi0qjv67kcp-50" value="" style="endArrow=none;dashed=1;html=1;strokeWidth=3;rounded=0;strokeColor=#00CC66;dashPattern=1 1;movable=1;resizable=1;rotatable=1;deletable=1;editable=1;locked=0;connectable=1;" parent="hzWnzZG3lfi0qjv67kcp-48" edge="1">
          <mxGeometry width="50" height="50" relative="1" as="geometry">
            <mxPoint x="40" as="sourcePoint" />
            <mxPoint x="25" as="targetPoint" />
            <Array as="points" />
          </mxGeometry>
        </mxCell>
        <mxCell id="hzWnzZG3lfi0qjv67kcp-51" value="" style="group;rotation=-180;fillColor=none;strokeColor=none;movable=1;resizable=1;rotatable=1;deletable=1;editable=1;locked=0;connectable=1;" parent="1" vertex="1" connectable="0">
          <mxGeometry x="1040.0049999999999" y="3360.005" width="50.289999999999964" height="0.11999999999989086" as="geometry" />
        </mxCell>
        <mxCell id="hzWnzZG3lfi0qjv67kcp-52" value="" style="endArrow=block;startArrow=none;html=1;rounded=1;curved=0;endFill=1;startFill=0;strokeColor=#BB88FF;strokeWidth=2;movable=1;resizable=1;rotatable=1;deletable=1;editable=1;locked=0;connectable=1;" parent="hzWnzZG3lfi0qjv67kcp-51" edge="1">
          <mxGeometry width="50" height="50" relative="1" as="geometry">
            <mxPoint x="20" as="sourcePoint" />
            <mxPoint x="50" as="targetPoint" />
          </mxGeometry>
        </mxCell>
        <mxCell id="hzWnzZG3lfi0qjv67kcp-53" value="" style="endArrow=none;startArrow=none;html=1;rounded=1;curved=0;endFill=0;startFill=0;strokeColor=#BB88FF;strokeWidth=2;dashed=1;dashPattern=1 1;movable=1;resizable=1;rotatable=1;deletable=1;editable=1;locked=0;connectable=1;" parent="hzWnzZG3lfi0qjv67kcp-51" edge="1">
          <mxGeometry width="50" height="50" relative="1" as="geometry">
            <mxPoint x="20" as="sourcePoint" />
            <mxPoint x="0.005000000000109139" y="-0.005000000000109139" as="targetPoint" />
          </mxGeometry>
        </mxCell>
        <mxCell id="VzHjEYt5VFmTs5Utye7s-1" value="&lt;b&gt;BUS&lt;/b&gt;&lt;div&gt;&lt;b&gt;connector&lt;/b&gt;&lt;/div&gt;&lt;div&gt;&lt;span style=&quot;color: rgb(77, 77, 77); font-size: 11px;&quot;&gt;TBP03R1-350-04BE&lt;/span&gt;&lt;b&gt;&lt;/b&gt;&lt;/div&gt;" style="rounded=0;whiteSpace=wrap;html=1;movable=1;resizable=1;rotatable=1;deletable=1;editable=1;locked=0;connectable=1;" vertex="1" parent="1">
          <mxGeometry x="950" y="2840" width="160" height="100" as="geometry" />
        </mxCell>
      </root>
    </mxGraphModel>
  </diagram>
</mxfile>
